<svg width="28" height="28" viewBox="0 0 28 28" fill="none" xmlns="http://www.w3.org/2000/svg">
<path d="M11 0.5H2C1.60218 0.5 1.22064 0.658035 0.93934 0.93934C0.658035 1.22064 0.5 1.60218 0.5 2V11C0.5 11.3978 0.658035 11.7794 0.93934 12.0607C1.22064 12.342 1.60218 12.5 2 12.5H11C11.3978 12.5 11.7794 12.342 12.0607 12.0607C12.342 11.7794 12.5 11.3978 12.5 11V2C12.5 1.60218 12.342 1.22064 12.0607 0.93934C11.7794 0.658035 11.3978 0.5 11 0.5ZM9.5 9.5H3.5V3.5H9.5V9.5ZM26 15.5H17C16.6022 15.5 16.2206 15.658 15.9393 15.9393C15.658 16.2206 15.5 16.6022 15.5 17V26C15.5 26.3978 15.658 26.7794 15.9393 27.0607C16.2206 27.342 16.6022 27.5 17 27.5H26C26.3978 27.5 26.7794 27.342 27.0607 27.0607C27.342 26.7794 27.5 26.3978 27.5 26V17C27.5 16.6022 27.342 16.2206 27.0607 15.9393C26.7794 15.658 26.3978 15.5 26 15.5ZM24.5 24.5H18.5V18.5H24.5V24.5ZM21.5 0.5C18.191 0.5 15.5 3.191 15.5 6.5C15.5 9.809 18.191 12.5 21.5 12.5C24.809 12.5 27.5 9.809 27.5 6.5C27.5 3.191 24.809 0.5 21.5 0.5ZM21.5 9.5C19.8455 9.5 18.5 8.1545 18.5 6.5C18.5 4.8455 19.8455 3.5 21.5 3.5C23.1545 3.5 24.5 4.8455 24.5 6.5C24.5 8.1545 23.1545 9.5 21.5 9.5ZM6.5 15.5C3.191 15.5 0.5 18.191 0.5 21.5C0.5 24.809 3.191 27.5 6.5 27.5C9.809 27.5 12.5 24.809 12.5 21.5C12.5 18.191 9.809 15.5 6.5 15.5ZM6.5 24.5C4.8455 24.5 3.5 23.1545 3.5 21.5C3.5 19.8455 4.8455 18.5 6.5 18.5C8.1545 18.5 9.5 19.8455 9.5 21.5C9.5 23.1545 8.1545 24.5 6.5 24.5Z" fill="#767676"/>
</svg>
