<svg width="28" height="28" viewBox="0 0 28 28" fill="none" xmlns="http://www.w3.org/2000/svg">
<path d="M14.0002 0.666828C21.364 0.666828 27.3335 6.63637 27.3335 14.0002C27.3335 21.364 21.364 27.3335 14.0002 27.3335C6.63637 27.3335 0.666828 21.364 0.666828 14.0002C0.674911 6.63972 6.63972 0.674911 14.0002 0.666828ZM14.0002 24.6668C19.8596 24.6653 24.6209 19.9377 24.6638 14.0784C24.7068 8.21906 20.0154 3.42208 14.1566 3.33468C8.29776 3.24728 3.46533 7.90218 3.3335 13.7602L3.3335 11.3828L3.3335 14.0002C3.34011 19.8885 8.11187 24.6602 14.0002 24.6668ZM14.0002 7.3335L20.6668 14.0002L14.0002 20.6668L12.1202 18.7868L15.5602 15.3335H7.3335L7.3335 12.6668H15.5602L12.1202 9.2135L14.0002 7.3335Z" fill="#2A3356"/>
</svg>
