<svg width="30" height="36" viewBox="0 0 30 36" fill="none" xmlns="http://www.w3.org/2000/svg">
<path d="M21.84 13.41L8.43 0L6.315 2.115L9.885 5.685L2.16 13.41C1.94957 13.6179 1.78249 13.8655 1.66846 14.1384C1.55443 14.4113 1.49571 14.7042 1.49571 15C1.49571 15.2958 1.55443 15.5887 1.66846 15.8616C1.78249 16.1345 1.94957 16.3821 2.16 16.59L10.41 24.84C10.845 25.275 11.43 25.5 12 25.5C12.57 25.5 13.155 25.275 13.59 24.84L21.84 16.59C22.725 15.72 22.725 14.295 21.84 13.41ZM4.815 15L12 7.815L19.185 15H4.815ZM25.5 17.25C25.5 17.25 22.5 20.505 22.5 22.5C22.5 24.15 23.85 25.5 25.5 25.5C27.15 25.5 28.5 24.15 28.5 22.5C28.5 20.505 25.5 17.25 25.5 17.25ZM0 30H30V36H0V30Z" fill="#2A3356"/>
</svg>
