<svg width="16" height="21" viewBox="0 0 16 21" fill="none" xmlns="http://www.w3.org/2000/svg">
<path d="M0.5 21V0H8.75C10.45 0 11.9375 0.5125 13.2125 1.5375C14.4875 2.5625 15.125 3.875 15.125 5.475C15.125 6.425 14.875 7.306 14.375 8.118C13.875 8.931 13.2 9.55 12.35 9.975V10.275C13.4 10.625 14.25 11.2435 14.9 12.1305C15.55 13.0185 15.875 14.025 15.875 15.15C15.875 16.875 15.1815 18.2815 13.7945 19.3695C12.4065 20.4565 10.8 21 8.975 21H0.5ZM4.475 8.55H8.45C9.2 8.55 9.8625 8.3125 10.4375 7.8375C11.0125 7.3625 11.3 6.7625 11.3 6.0375C11.3 5.3125 11.0125 4.7125 10.4375 4.2375C9.8625 3.7625 9.2 3.525 8.45 3.525H4.475V8.55ZM4.475 17.4H8.75C9.6 17.4 10.3375 17.1435 10.9625 16.6305C11.5875 16.1185 11.9 15.4625 11.9 14.6625C11.9 13.8625 11.5875 13.206 10.9625 12.693C10.3375 12.181 9.6 11.925 8.75 11.925H4.475V17.4Z" fill="#2A3356"/>
</svg>
