<svg width="30" height="30" viewBox="0 0 30 30" fill="none" xmlns="http://www.w3.org/2000/svg">
<path d="M26.9392 14.1985L22.6782 18.4595C21.947 19.1908 21.0788 19.771 20.1233 20.1668C19.1678 20.5626 18.1437 20.7663 17.1095 20.7663C16.0753 20.7663 15.0512 20.5626 14.0957 20.1668C13.1402 19.771 12.272 19.1908 11.5407 18.4595C11.3605 18.3094 11.2134 18.1234 11.1091 17.9134C11.0047 17.7033 10.9453 17.4738 10.9346 17.2394C10.9239 17.0051 10.9621 16.7711 11.0469 16.5524C11.1317 16.3337 11.2612 16.1351 11.4271 15.9693C11.5929 15.8034 11.7916 15.6739 12.0103 15.5891C12.229 15.5043 12.4629 15.4661 12.6973 15.4768C12.9316 15.4875 13.1611 15.5469 13.3712 15.6513C13.5812 15.7556 13.7672 15.9026 13.9173 16.0829C14.7651 16.9219 15.9097 17.3926 17.1025 17.3926C18.2952 17.3926 19.4398 16.9219 20.2876 16.0829L24.5485 11.822C25.3933 10.9772 25.8679 9.83149 25.8679 8.63683C25.8679 7.44216 25.3933 6.29643 24.5485 5.45167C23.7038 4.60691 22.5581 4.13234 21.3634 4.13234C20.1687 4.13234 19.023 4.60691 18.1782 5.45167L16.8282 6.81573C16.5112 7.13275 16.0813 7.31085 15.6329 7.31085C15.1846 7.31085 14.7546 7.13275 14.4376 6.81573C14.1206 6.49872 13.9425 6.06875 13.9425 5.62042C13.9425 5.17209 14.1206 4.74213 14.4376 4.42511L15.8017 3.06105C17.2786 1.58412 19.2817 0.754395 21.3704 0.754395C23.4591 0.754395 25.4622 1.58412 26.9392 3.06105C28.4161 4.53797 29.2458 6.54111 29.2458 8.6298C29.2458 10.7185 28.4161 12.7216 26.9392 14.1985ZM13.172 23.1845L11.822 24.5485C10.9772 25.3933 9.83149 25.8679 8.63683 25.8679C7.44216 25.8679 6.29643 25.3933 5.45167 24.5485C4.60691 23.7038 4.13234 22.5581 4.13234 21.3634C4.13234 20.1687 4.60691 19.023 5.45167 18.1782L9.71261 13.9173C10.5604 13.0783 11.705 12.6077 12.8978 12.6077C14.0905 12.6077 15.2351 13.0783 16.0829 13.9173C16.4064 14.1866 16.8189 14.3253 17.2394 14.3061C17.6599 14.2869 18.0581 14.1112 18.3557 13.8136C18.6534 13.5159 18.8291 13.1178 18.8482 12.6973C18.8674 12.2768 18.7288 11.8643 18.4595 11.5407C17.7292 10.8077 16.8613 10.2261 15.9057 9.82922C14.9501 9.43236 13.9255 9.22807 12.8907 9.22807C11.856 9.22807 10.8314 9.43236 9.8758 9.82922C8.92018 10.2261 8.05231 10.8077 7.32198 11.5407L3.06105 15.8017C1.58412 17.2786 0.754395 19.2817 0.754395 21.3704C0.754395 23.4591 1.58412 25.4622 3.06105 26.9392C4.53797 28.4161 6.54111 29.2458 8.6298 29.2458C10.7185 29.2458 12.7216 28.4161 14.1985 26.9392L15.5626 25.5751C15.8796 25.2581 16.0577 24.8281 16.0577 24.3798C16.0577 23.9315 15.8796 23.5015 15.5626 23.1845C15.2456 22.8675 14.8156 22.6894 14.3673 22.6894C13.919 22.6894 13.489 22.8675 13.172 23.1845Z" fill="#2A3356"/>
</svg>
