<svg width="22" height="28" viewBox="0 0 22 28" fill="none" xmlns="http://www.w3.org/2000/svg">
<path d="M12.7502 7.00016V11.6668H15.6668M14.1327 2.3335H8.66683C8.04799 2.3335 7.4545 2.57933 7.01691 3.01691C6.57933 3.4545 6.3335 4.04799 6.3335 4.66683V18.6668C6.3335 19.2857 6.57933 19.8792 7.01691 20.3167C7.4545 20.7543 8.04799 21.0002 8.66683 21.0002H18.0002C18.619 21.0002 19.2125 20.7543 19.6501 20.3167C20.0877 19.8792 20.3335 19.2857 20.3335 18.6668V8.44916C20.3335 8.13832 20.2713 7.83061 20.1507 7.54411C20.0301 7.25762 19.8535 6.99811 19.6312 6.78083L15.7637 2.9985C15.3278 2.57226 14.7423 2.33357 14.1327 2.3335V2.3335Z" stroke="#6E748C" stroke-width="3" stroke-linecap="round" stroke-linejoin="round"/>
<path d="M15.6667 21.0003V23.3337C15.6667 23.9525 15.4209 24.546 14.9833 24.9836C14.5457 25.4212 13.9523 25.667 13.3334 25.667H4.00008C3.38124 25.667 2.78775 25.4212 2.35017 24.9836C1.91258 24.546 1.66675 23.9525 1.66675 23.3337V10.5003C1.66675 9.88149 1.91258 9.28799 2.35017 8.85041C2.78775 8.41282 3.38124 8.16699 4.00008 8.16699H6.33341" stroke="#6E748C" stroke-width="3" stroke-linecap="round" stroke-linejoin="round"/>
</svg>
