<svg width="30" height="33" viewBox="0 0 30 33" fill="none" xmlns="http://www.w3.org/2000/svg">
<path d="M0 32.9998V26.9998H30V32.9998H0ZM3 23.9998V18.3748L16.575 4.79978L22.2 10.4248L8.625 23.9998H3ZM6 20.9998H7.35L18 10.4248L16.575 8.99978L6 19.6498V20.9998ZM23.8875 8.77478L18.2625 3.14978L20.9625 0.449782C21.2375 0.149782 21.5875 0.00578215 22.0125 0.0177822C22.4375 0.0307822 22.7875 0.174782 23.0625 0.449782L26.5875 3.97478C26.8625 4.24978 27 4.59378 27 5.00678C27 5.41878 26.8625 5.77478 26.5875 6.07478L23.8875 8.77478Z" fill="#2A3356"/>
</svg>
