<svg width="32" height="28" viewBox="0 0 32 28" fill="none" xmlns="http://www.w3.org/2000/svg">
<path d="M16 27.5C15.808 27.5019 15.6189 27.4534 15.4516 27.3594C14.8469 27.0219 0.8125 19.0484 0.8125 8.9375C0.8125 7.16662 1.36969 5.44062 2.40514 4.00401C3.4406 2.56739 4.90182 1.49299 6.58183 0.932985C8.26184 0.372982 10.0755 0.355772 11.7658 0.883792C13.4561 1.41181 14.9375 2.45829 16 3.875C17.0625 2.45829 18.5439 1.41181 20.2342 0.883792C21.9245 0.355772 23.7382 0.372982 25.4182 0.932985C27.0982 1.49299 28.5594 2.56739 29.5949 4.00401C30.6303 5.44062 31.1875 7.16662 31.1875 8.9375C31.1875 13.2406 28.6984 17.6562 23.7906 22.0719C21.5621 24.0753 19.1355 25.8469 16.5484 27.3594C16.3811 27.4534 16.192 27.5019 16 27.5ZM9.25 2.75C7.60897 2.75 6.03516 3.4019 4.87478 4.56228C3.7144 5.72266 3.0625 7.29647 3.0625 8.9375C3.0625 16.7 13.4688 23.5203 16 25.0672C18.5312 23.5203 28.9375 16.7 28.9375 8.9375C28.9388 7.5071 28.4445 6.12043 27.5386 5.01341C26.6328 3.9064 25.3714 3.14743 23.969 2.86563C22.5666 2.58383 21.1099 2.79661 19.8468 3.46777C18.5836 4.13893 17.592 5.227 17.0406 6.54688C16.9559 6.75321 16.8117 6.92969 16.6264 7.0539C16.4411 7.1781 16.2231 7.24441 16 7.24441C15.7769 7.24441 15.5589 7.1781 15.3736 7.0539C15.1883 6.92969 15.0441 6.75321 14.9594 6.54688C14.4911 5.41944 13.6984 4.45657 12.6819 3.78055C11.6653 3.10452 10.4708 2.74582 9.25 2.75Z" fill="#2A3356"/>
</svg>
