<svg width="30" height="30" viewBox="0 0 30 30" fill="none" xmlns="http://www.w3.org/2000/svg">
<path d="M27.9375 0.9375H2.0625C1.44023 0.9375 0.9375 1.44023 0.9375 2.0625V27.9375C0.9375 28.5598 1.44023 29.0625 2.0625 29.0625H27.9375C28.5598 29.0625 29.0625 28.5598 29.0625 27.9375V2.0625C29.0625 1.44023 28.5598 0.9375 27.9375 0.9375ZM9.28008 24.9035H5.10703V11.4809H9.28008V24.9035ZM7.19531 9.6457C6.71693 9.6457 6.24929 9.50385 5.85153 9.23807C5.45377 8.97229 5.14375 8.59454 4.96068 8.15257C4.77761 7.7106 4.72971 7.22427 4.82304 6.75508C4.91637 6.28589 5.14673 5.85491 5.485 5.51664C5.82327 5.17837 6.25425 4.94801 6.72344 4.85468C7.19263 4.76135 7.67896 4.80925 8.12093 4.99232C8.5629 5.17539 8.94065 5.48541 9.20643 5.88317C9.47221 6.28093 9.61406 6.74857 9.61406 7.22695C9.61055 8.56289 8.52773 9.6457 7.19531 9.6457ZM24.9035 24.9035H20.734V18.375C20.734 16.8176 20.7059 14.8172 18.5648 14.8172C16.3957 14.8172 16.0617 16.5117 16.0617 18.2625V24.9035H11.8957V11.4809H15.8965V13.316H15.9527C16.5082 12.2613 17.8688 11.1469 19.9008 11.1469C24.1266 11.1469 24.9035 13.9277 24.9035 17.5418V24.9035Z" fill="#2A3356" fill-opacity="0.8"/>
</svg>
