<svg width="16" height="16" viewBox="0 0 16 16" fill="none" xmlns="http://www.w3.org/2000/svg">
<path d="M1.21484 7.40234L4.16797 4.44922C4.24653 4.37093 4.33975 4.3089 4.4423 4.26667C4.54485 4.22445 4.65472 4.20285 4.76563 4.20312C4.98931 4.20409 5.20377 4.2924 5.36328 4.44922C5.44194 4.52761 5.50435 4.62075 5.54694 4.72331C5.58953 4.82587 5.61145 4.93583 5.61145 5.04687C5.61145 5.15792 5.58953 5.26788 5.54694 5.37044C5.50435 5.473 5.44194 5.56614 5.36328 5.64453L3.85156 7.15625L9.6875 7.15625C9.91128 7.15625 10.1259 7.24515 10.2841 7.40338C10.4424 7.56161 10.5312 7.77622 10.5312 8C10.5312 8.22378 10.4424 8.43839 10.2841 8.59662C10.1259 8.75486 9.91128 8.84375 9.6875 8.84375L3.85156 8.84375L5.36328 10.3555C5.52179 10.514 5.61084 10.729 5.61084 10.9531C5.61084 11.1773 5.52179 11.3923 5.36328 11.5508C5.20477 11.7093 4.98979 11.7983 4.76562 11.7983C4.54146 11.7983 4.32648 11.7093 4.16797 11.5508L1.21484 8.59766C1.13618 8.51927 1.07377 8.42613 1.03119 8.32357C0.9886 8.22101 0.966679 8.11105 0.966679 8C0.966679 7.88895 0.9886 7.77899 1.03119 7.67643C1.07377 7.57387 1.13618 7.48073 1.21484 7.40234ZM9.6875 2.65625H13.3438L13.3438 13.3438H9.6875C9.46372 13.3438 9.24911 13.4326 9.09088 13.5909C8.93264 13.7491 8.84375 13.9637 8.84375 14.1875C8.84375 14.4113 8.93264 14.6259 9.09088 14.7841C9.24911 14.9424 9.46372 15.0312 9.6875 15.0312H13.625C13.9974 15.0294 14.354 14.8807 14.6173 14.6173C14.8807 14.354 15.0294 13.9974 15.0312 13.625L15.0313 2.375C15.0294 2.00261 14.8807 1.646 14.6173 1.38267C14.354 1.11935 13.9974 0.970598 13.625 0.96875H9.6875C9.46372 0.96875 9.24911 1.05764 9.09088 1.21588C8.93264 1.37411 8.84375 1.58872 8.84375 1.8125C8.84375 2.03628 8.93264 2.25089 9.09088 2.40912C9.24911 2.56736 9.46372 2.65625 9.6875 2.65625Z" fill="#2A3356" fill-opacity="0.8"/>
</svg>
