<svg width="34" height="20" viewBox="0 0 34 20" fill="none" xmlns="http://www.w3.org/2000/svg">
<path d="M18.125 10C18.125 15.2734 14.0891 19.5625 9.125 19.5625C4.16094 19.5625 0.125 15.2734 0.125 10C0.125 4.72656 4.16094 0.4375 9.125 0.4375C14.0891 0.4375 18.125 4.72656 18.125 10ZM32.75 1C32.4516 1 32.1655 1.11853 31.9545 1.32951C31.7435 1.54048 31.625 1.82663 31.625 2.125V17.875C31.625 18.1734 31.7435 18.4595 31.9545 18.6705C32.1655 18.8815 32.4516 19 32.75 19C33.0484 19 33.3345 18.8815 33.5455 18.6705C33.7565 18.4595 33.875 18.1734 33.875 17.875V2.125C33.875 1.82663 33.7565 1.54048 33.5455 1.32951C33.3345 1.11853 33.0484 1 32.75 1ZM24.875 1C24.0734 1 22.5688 1.39375 21.4578 3.99531C20.7547 5.6125 20.375 7.75 20.375 10C20.375 12.25 20.7547 14.3875 21.4578 16.0047C22.5688 18.6062 24.0734 19 24.875 19C25.6766 19 27.1812 18.6062 28.2922 16.0047C28.9953 14.3875 29.375 12.25 29.375 10C29.375 7.75 28.9953 5.6125 28.2922 3.99531C27.1812 1.39375 25.6766 1 24.875 1Z" fill="#2A3356" fill-opacity="0.8"/>
</svg>
