<svg width="24" height="26" viewBox="0 0 24 26" fill="none" xmlns="http://www.w3.org/2000/svg">
<path fill-rule="evenodd" clip-rule="evenodd" d="M12 0.75C11.5358 0.75 11.0907 0.934374 10.7625 1.26256C10.4343 1.59075 10.25 2.03587 10.25 2.5V2.675C8.27387 3.07904 6.49795 4.1531 5.22246 5.71556C3.94698 7.27803 3.25021 9.23303 3.24996 11.25V18.25L1.14121 20.574C0.12096 21.6992 0.91896 23.5 2.43621 23.5H8.96896C9.27616 24.032 9.71799 24.4738 10.25 24.781C10.7821 25.0881 11.3856 25.2498 12 25.2498C12.6143 25.2498 13.2178 25.0881 13.7499 24.781C14.2819 24.4738 14.7238 24.032 15.031 23.5H21.5637C23.081 23.5 23.879 21.6975 22.8587 20.574L20.75 18.25V11.25C20.7497 9.23303 20.0529 7.27803 18.7775 5.71556C17.502 4.1531 15.726 3.07904 13.75 2.675V2.5C13.75 2.03587 13.5656 1.59075 13.2374 1.26256C12.9092 0.934374 12.4641 0.75 12 0.75ZM5.87496 19.265L5.19246 20.014L4.41196 20.875H19.588L18.8057 20.014L18.125 19.2633V11.25C18.125 10.4457 17.9665 9.64918 17.6587 8.90606C17.3509 8.16294 16.8997 7.48773 16.331 6.91897C15.7622 6.35021 15.087 5.89905 14.3439 5.59124C13.6008 5.28343 12.8043 5.125 12 5.125C11.1956 5.125 10.3991 5.28343 9.65602 5.59124C8.9129 5.89905 8.23769 6.35021 7.66893 6.91897C7.10017 7.48773 6.64901 8.16294 6.3412 8.90606C6.03339 9.64918 5.87496 10.4457 5.87496 11.25V19.265Z" fill="#2A3356" fill-opacity="0.68"/>
</svg>
