<svg width="45" height="36" viewBox="0 0 45 36" fill="none" xmlns="http://www.w3.org/2000/svg">
<path d="M15 10.5C15 11.75 14.5625 12.8125 13.6875 13.6875C12.8125 14.5625 11.75 15 10.5 15C9.25 15 8.1875 14.5625 7.3125 13.6875C6.4375 12.8125 6 11.75 6 10.5C6 9.25 6.4375 8.1875 7.3125 7.3125C8.1875 6.4375 9.25 6 10.5 6C11.75 6 12.8125 6.4375 13.6875 7.3125C14.5625 8.1875 15 9.25 15 10.5ZM39 19.5V30H6V25.5L13.5 18L17.25 21.75L29.25 9.75L39 19.5ZM41.25 3H3.75C3.54688 3 3.37109 3.07422 3.22266 3.22266C3.07422 3.37109 3 3.54688 3 3.75V32.25C3 32.4531 3.07422 32.6289 3.22266 32.7773C3.37109 32.9258 3.54688 33 3.75 33H41.25C41.4531 33 41.6289 32.9258 41.7773 32.7773C41.9258 32.6289 42 32.4531 42 32.25V3.75C42 3.54688 41.9258 3.37109 41.7773 3.22266C41.6289 3.07422 41.4531 3 41.25 3ZM45 3.75V32.25C45 33.2812 44.6328 34.1641 43.8984 34.8984C43.1641 35.6328 42.2812 36 41.25 36H3.75C2.71875 36 1.83594 35.6328 1.10156 34.8984C0.367188 34.1641 0 33.2812 0 32.25V3.75C0 2.71875 0.367188 1.83594 1.10156 1.10156C1.83594 0.367188 2.71875 0 3.75 0H41.25C42.2812 0 43.1641 0.367188 43.8984 1.10156C44.6328 1.83594 45 2.71875 45 3.75Z" fill="#767676"/>
</svg>
