<svg width="20" height="15" viewBox="0 0 20 15" fill="none" xmlns="http://www.w3.org/2000/svg">
<path d="M7.89699 1.51968C7.93013 1.5051 7.96639 1.49907 8.00247 1.50217C8.03854 1.50526 8.07325 1.51737 8.10342 1.53738C8.13359 1.55739 8.15824 1.58467 8.17512 1.6167C8.19199 1.64873 8.20055 1.68448 8.19999 1.72068V3.45018C8.19999 3.6491 8.27901 3.83986 8.41966 3.98051C8.56031 4.12117 8.75108 4.20018 8.94999 4.20018C9.95049 4.20018 11.9695 4.20768 13.9 5.43318C15.376 6.36918 16.885 8.07318 17.7925 11.2472C16.2625 9.77268 14.515 8.97318 12.985 8.54868C12.0446 8.28894 11.0781 8.13499 10.1035 8.08968C9.70457 8.07216 9.30498 8.07617 8.90649 8.10168H8.88699L8.87949 8.10318H8.87799L8.94999 8.85018L8.87499 8.10318C8.68986 8.12179 8.51826 8.20854 8.39352 8.34659C8.26878 8.48464 8.1998 8.66412 8.19999 8.85018V10.5797C8.19999 10.7417 8.03499 10.8437 7.89699 10.7807L1.92099 6.38118C1.90071 6.36614 1.87968 6.35212 1.85799 6.33918C1.82538 6.31958 1.79839 6.29188 1.77965 6.25876C1.76091 6.22564 1.75107 6.18823 1.75107 6.15018C1.75107 6.11213 1.76091 6.07473 1.77965 6.04161C1.79839 6.00849 1.82538 5.98078 1.85799 5.96118C1.87969 5.94825 1.90071 5.93424 1.92099 5.91918L7.89699 1.51968ZM9.69999 9.57918C9.80199 9.57918 9.91449 9.58368 10.0345 9.58818C10.6855 9.61818 11.5855 9.71718 12.5845 9.99468C14.5735 10.5467 16.9285 11.7977 18.4945 14.6147C18.5792 14.7667 18.7141 14.8846 18.8762 14.9481C19.0382 15.0116 19.2173 15.0167 19.3828 14.9626C19.5482 14.9086 19.6897 14.7986 19.7829 14.6517C19.8762 14.5047 19.9155 14.3299 19.894 14.1572C19.198 8.59218 17.065 5.66418 14.704 4.16718C12.8365 2.98218 10.9135 2.75418 9.69999 2.71068V1.72068C9.70013 1.41179 9.61689 1.10858 9.45904 0.843054C9.3012 0.577529 9.07461 0.359534 8.80319 0.21207C8.53176 0.0646065 8.22557 -0.00685783 7.9169 0.00521837C7.60824 0.0172946 7.30857 0.112463 7.04949 0.280683L1.05849 4.69068C0.810811 4.84529 0.60655 5.06038 0.464938 5.31571C0.323327 5.57104 0.249023 5.85821 0.249023 6.15018C0.249023 6.44216 0.323327 6.72932 0.464938 6.98465C0.60655 7.23999 0.810811 7.45508 1.05849 7.60968L7.04949 12.0197C7.30857 12.1879 7.60824 12.2831 7.9169 12.2951C8.22557 12.3072 8.53176 12.2358 8.80319 12.0883C9.07461 11.9408 9.3012 11.7228 9.45904 11.4573C9.61689 11.1918 9.70013 10.8886 9.69999 10.5797V9.57918Z" fill="#2A3356"/>
</svg>
