<svg width="16" height="16" viewBox="0 0 16 16" fill="none" xmlns="http://www.w3.org/2000/svg">
<path d="M15.8131 14.5172L11.5651 10.2692C12.5859 9.04371 13.095 7.47182 12.9863 5.88054C12.8777 4.28927 12.1598 2.80113 10.9819 1.7257C9.80403 0.650269 8.25688 0.0703499 6.66231 0.106581C5.06774 0.142813 3.54853 0.792405 2.42071 1.92022C1.29289 3.04804 0.643301 4.56726 0.60707 6.16182C0.570838 7.75639 1.15076 9.30354 2.22619 10.4814C3.30162 11.6593 4.78976 12.3772 6.38103 12.4858C7.9723 12.5945 9.5442 12.0854 10.7697 11.0646L15.0177 15.3126L15.8131 14.5172ZM1.75058 6.3126C1.75058 5.31133 2.04749 4.33255 2.60377 3.50002C3.16004 2.6675 3.9507 2.01862 4.87575 1.63546C5.8008 1.25229 6.8187 1.15203 7.80073 1.34737C8.78276 1.54271 9.68481 2.02486 10.3928 2.73287C11.1008 3.44087 11.583 4.34292 11.7783 5.32495C11.9736 6.30698 11.8734 7.32488 11.4902 8.24993C11.1071 9.17498 10.4582 9.96564 9.62566 10.5219C8.79313 11.0782 7.81435 11.3751 6.81308 11.3751C5.47088 11.3736 4.18408 10.8398 3.235 9.89068C2.28592 8.9416 1.75207 7.6548 1.75058 6.3126Z" fill="#767676"/>
</svg>
